<svg width="19" height="19" viewBox="0 0 19 19" fill="none" xmlns="http://www.w3.org/2000/svg">
<path fill-rule="evenodd" clip-rule="evenodd" d="M14.9581 13.0402C15.4721 13.0395 15.97 12.8605 16.3668 12.5337C16.7636 12.2069 17.0348 11.7526 17.1341 11.2482L18.2491 5.67523C18.3136 5.35225 18.3058 5.01894 18.2262 4.69934C18.1466 4.37974 17.9971 4.08178 17.7886 3.82684C17.58 3.57191 17.3176 3.36635 17.0201 3.22498C16.7226 3.0836 16.3974 3.00992 16.0681 3.00922H4.96807V1.89423C4.96781 1.59937 4.85078 1.31662 4.64257 1.10785C4.43436 0.899077 4.15193 0.78127 3.85708 0.780212H1.64208C1.35227 0.788894 1.07725 0.910102 0.875325 1.11816C0.673403 1.32623 0.560475 1.60478 0.560475 1.89471C0.560475 2.18465 0.673403 2.4632 0.875325 2.67126C1.07725 2.87933 1.35227 3.00053 1.64208 3.00922H2.75707V14.1542C2.31579 14.1523 1.88385 14.2813 1.51598 14.525C1.14811 14.7687 0.860875 15.1161 0.690633 15.5233C0.520391 15.9304 0.474808 16.3788 0.559682 16.8119C0.644556 17.2449 0.856049 17.6431 1.16738 17.9558C1.47871 18.2685 1.87587 18.4818 2.30852 18.5686C2.74118 18.6554 3.18986 18.6119 3.59774 18.4435C4.00562 18.2751 4.35435 17.9894 4.59972 17.6226C4.84509 17.2558 4.97606 16.8245 4.97606 16.3832H12.7421C12.7439 16.8219 12.8755 17.2502 13.1206 17.6141C13.3656 17.978 13.7129 18.2611 14.1187 18.4278C14.5245 18.5944 14.9706 18.6371 15.4007 18.5505C15.8307 18.4638 16.2254 18.2516 16.535 17.9408C16.8446 17.63 17.0551 17.2344 17.1401 16.804C17.225 16.3736 17.1805 15.9277 17.0122 15.5226C16.8439 15.1175 16.5594 14.7713 16.1945 14.5277C15.8296 14.2842 15.4008 14.1542 14.9621 14.1542H4.97509V13.0402H14.9581ZM16.0731 5.24023L14.9581 10.8132H4.97106V5.24023H16.0711H16.0731Z" fill="#33A0FF"/>
</svg>
