<svg xmlns="http://www.w3.org/2000/svg" width="21" height="21" viewBox="0 0 21 21" fill="none">
<path d="M7.3418 19.695C7.65246 19.695 7.9043 19.4432 7.9043 19.1325C7.9043 18.8218 7.65246 18.57 7.3418 18.57C7.03114 18.57 6.7793 18.8218 6.7793 19.1325C6.7793 19.4432 7.03114 19.695 7.3418 19.695Z" fill="#22262A" stroke="#22262A" stroke-width="2" stroke-miterlimit="10" stroke-linecap="round" stroke-linejoin="round"/>
<path d="M15.2168 19.695C15.5275 19.695 15.7793 19.4432 15.7793 19.1325C15.7793 18.8218 15.5275 18.57 15.2168 18.57C14.9061 18.57 14.6543 18.8218 14.6543 19.1325C14.6543 19.4432 14.9061 19.695 15.2168 19.695Z" fill="#22262A" stroke="#22262A" stroke-width="2" stroke-miterlimit="10" stroke-linecap="round" stroke-linejoin="round"/>
<path d="M1.1543 1.69501H3.4043L5.6543 15.195H16.9043L19.1543 5.07001H4.5293" stroke="#22262A" stroke-width="2" stroke-linecap="round" stroke-linejoin="round"/>
</svg>