<svg xmlns="http://www.w3.org/2000/svg" width="22" height="22" viewBox="0 0 22 22" fill="none">
<path fill-rule="evenodd" clip-rule="evenodd" d="M20.7067 18.9129L14.3987 12.5758C15.5304 10.9697 16.0175 8.99706 15.7635 7.04873C15.5095 5.1004 14.533 3.31857 13.0273 2.05623C11.5217 0.7939 9.59677 0.143171 7.63401 0.232992C5.67125 0.322814 3.81385 1.14658 2.42978 2.54116C1.04572 3.93574 0.23596 5.79933 0.160986 7.76272C0.0860119 9.7261 0.751283 11.646 2.02497 13.1421C3.29866 14.6382 5.08784 15.6012 7.03803 15.8405C8.98822 16.0797 10.9571 15.5777 12.5547 14.4339L18.8627 20.7719C18.984 20.8958 19.1288 20.9945 19.2886 21.062C19.4485 21.1295 19.6201 21.1645 19.7936 21.1651C19.9671 21.1657 20.1389 21.1318 20.2992 21.0654C20.4595 20.999 20.6049 20.9014 20.7271 20.7782C20.8494 20.6551 20.9459 20.5089 21.0111 20.3481C21.0763 20.1873 21.1089 20.0152 21.107 19.8418C21.1051 19.6683 21.0687 19.4969 21 19.3376C20.9313 19.1783 20.8316 19.0343 20.7067 18.9138V18.9129ZM8.01768 13.2708C6.97672 13.2766 5.95749 12.9732 5.08918 12.399C4.22086 11.8249 3.54254 11.0059 3.1402 10.0458C2.73786 9.08573 2.62961 8.02779 2.82917 7.00612C3.02872 5.98446 3.52711 5.04508 4.26114 4.30697C4.99518 3.56886 5.93183 3.06527 6.95237 2.86007C7.97291 2.65486 9.03141 2.75729 9.99369 3.15432C10.956 3.55134 11.7787 4.2251 12.3576 5.09023C12.9366 5.95536 13.2457 6.97285 13.2457 8.01381C13.2457 9.40305 12.6958 10.7359 11.7162 11.7209C10.7366 12.706 9.40689 13.2632 8.01768 13.2708Z" fill="#22262A"/>
</svg>