<svg width="18" height="17" viewBox="0 0 18 17" fill="none" xmlns="http://www.w3.org/2000/svg">
<path fill-rule="evenodd" clip-rule="evenodd" d="M12.3404 3.12324C12.9843 3.1239 13.6142 3.31039 14.1547 3.66035C14.6951 4.01031 15.123 4.50885 15.387 5.09608C15.6509 5.6833 15.7398 6.33428 15.6429 6.97077C15.5459 7.60727 15.2673 8.20221 14.8404 8.68421C14.2274 9.37521 9.00048 14.2683 9.00048 14.2683C9.00048 14.2683 3.76246 9.37523 3.14946 8.67323C2.60827 8.06576 2.31055 7.27982 2.31347 6.46626C2.32863 5.58952 2.68754 4.75376 3.31292 4.13911C3.93829 3.52445 4.7801 3.18006 5.65697 3.18006C6.53384 3.18006 7.37559 3.52445 8.00097 4.13911C8.62634 4.75376 8.98531 5.58952 9.00048 6.46626C9.00048 6.02712 9.08694 5.59224 9.25499 5.18653C9.42305 4.78082 9.66939 4.41221 9.97991 4.10169C10.2904 3.79117 10.659 3.54483 11.0647 3.37678C11.4705 3.20873 11.9053 3.12226 12.3445 3.12226L12.3404 3.12324ZM12.3445 0.893258C11.1382 0.891153 9.96412 1.28261 9.00048 2.00825C7.89652 1.18886 6.52862 0.80644 5.15978 0.934518C3.79094 1.0626 2.51774 1.69214 1.58495 2.7021C0.652158 3.71205 0.125604 5.03115 0.106496 6.40583C0.0873876 7.78051 0.577074 9.11375 1.48143 10.1492C2.10743 10.8672 6.23043 14.7273 7.48143 15.8933C7.89436 16.2794 8.43861 16.4942 9.00396 16.4942C9.56931 16.4942 10.1135 16.2794 10.5264 15.8933C11.7704 14.7283 15.8764 10.8783 16.5104 10.1613C17.2218 9.35773 17.686 8.3659 17.8473 7.30494C18.0086 6.24398 17.8602 5.15901 17.4198 4.18037C16.9794 3.20173 16.2658 2.37102 15.3648 1.78809C14.4638 1.20517 13.4136 0.894784 12.3404 0.894235L12.3445 0.893258Z" fill="#33A0FF"/>
</svg>
